<?xml version="1.0" encoding="UTF-8"?>
<!-- Generator: Adobe Illustrator 18.0.0, SVG Export Plug-In . SVG Version: 6.00 Build 0)  -->
<!DOCTYPE svg PUBLIC "-//W3C//DTD SVG 1.1//EN" "http://www.w3.org/Graphics/SVG/1.1/DTD/svg11.dtd">
<svg version="1.1" id="Layer_1" xmlns="http://www.w3.org/2000/svg" xmlns:xlink="http://www.w3.org/1999/xlink" x="0px" y="0px" viewBox="0 0 221.5 60" enable-background="new 0 0 221.5 60" xml:space="preserve">
<g>
	<rect fill="#F0FF5F" width="221.5" height="60"/>
	<g>
		<path d="M22.6,24.3h3.9l3.1,9.2c0.3,0.9,0.5,2.2,0.5,2.2h0.1c0,0,0.2-1.4,0.5-2.2l3.1-9.2h3.9l-5.3,14.8h-4.4L22.6,24.3z"/>
		<path d="M46.9,36.3c2.4,0,4.4-1.9,4.4-4.6c0-2.7-2-4.6-4.4-4.6c-2.4,0-4.4,1.9-4.4,4.6C42.5,34.4,44.5,36.3,46.9,36.3 M46.9,23.9    c4.5,0,8.2,3.2,8.2,7.8c0,4.6-3.6,7.7-8.1,7.7c-4.5,0-8.2-3.2-8.2-7.7C38.8,27.1,42.4,23.9,46.9,23.9"/>
		<path d="M65.8,36.3c2.4,0,4.4-1.9,4.4-4.6c0-2.7-2-4.6-4.4-4.6c-2.4,0-4.4,1.9-4.4,4.6C61.4,34.4,63.4,36.3,65.8,36.3 M65.7,23.9    c4.5,0,8.2,3.2,8.2,7.8c0,4.6-3.6,7.7-8.1,7.7c-4.5,0-8.2-3.2-8.2-7.7C57.6,27.1,61.2,23.9,65.7,23.9"/>
		<path d="M77.5,24.3H81v2.6c0,0.6-0.1,1-0.1,1H81c0.7-2.1,2.4-3.8,4.7-3.8c0.3,0,0.7,0.1,0.7,0.1v3.6c0,0-0.4-0.1-0.9-0.1    c-1.6,0-3.3,0.9-4,3.1c-0.2,0.7-0.3,1.5-0.3,2.4v5.9h-3.7V24.3z"/>
		<path d="M95.8,36.3c1.9,0,3.7-1.4,3.7-4.7c0-2.3-1.2-4.6-3.7-4.6c-2,0-3.7,1.7-3.7,4.6C92.1,34.5,93.6,36.3,95.8,36.3 M95.1,23.9    c3.3,0,4.3,1.9,4.3,1.9h0.1c0,0,0-0.4,0-0.8v-5.7h3.7v19.8h-3.5v-1.2c0-0.6,0.1-1,0.1-1h-0.1c0,0-1.2,2.5-4.6,2.5    c-4,0-6.6-3.2-6.6-7.7C88.4,27,91.2,23.9,95.1,23.9"/>
		<path d="M117,29.8c-0.1-2-1.3-3.1-2.9-3.1c-1.9,0-3.2,1.2-3.5,3.1H117z M114.2,23.9c4.3,0,6.6,3.1,6.6,7c0,0.4-0.1,1.4-0.1,1.4    h-10.2c0.2,2.6,2.2,3.9,4.4,3.9c2.4,0,4.3-1.6,4.3-1.6l1.4,2.6c0,0-2.3,2.1-6,2.1c-4.9,0-8-3.5-8-7.7    C106.6,27.1,109.7,23.9,114.2,23.9"/>
		<polygon points="124.5,19.3 128.1,19.3 128.1,29.5 130,29.5 133.5,24.3 137.6,24.3 133,30.9 133,30.9 138.2,39.1 134,39.1     130.1,32.6 128.1,32.6 128.1,39.1 124.5,39.1   "/>
		<path d="M140.5,24.3h3.7V33c0,1.8,0.5,3,2.3,3c2.7,0,4.2-2.4,4.2-5v-6.8h3.7v14.8h-3.5v-1.7c0-0.6,0.1-1,0.1-1h-0.1    c-0.7,1.5-2.6,3.1-5.1,3.1c-3.2,0-5.1-1.6-5.1-5.6V24.3z"/>
		<path d="M158.9,24.3h3.5V26c0,0.6-0.1,1-0.1,1h0.1c0.6-1.2,2.3-3.1,5.3-3.1c3.3,0,5.1,1.7,5.1,5.6v9.5h-3.7v-8.8    c0-1.8-0.5-3-2.3-3c-2,0-3.4,1.2-4,3c-0.2,0.6-0.3,1.3-0.3,2v6.8h-3.7V24.3z"/>
		<path d="M177.7,34.6c0,0,1.6,1.6,4,1.6c1,0,1.9-0.5,1.9-1.3c0-2.2-7.2-1.9-7.2-6.7c0-2.8,2.5-4.4,5.7-4.4c3.3,0,5,1.7,5,1.7    l-1.4,2.7c0,0-1.4-1.3-3.6-1.3c-1,0-1.9,0.4-1.9,1.3c0,2.1,7.2,1.8,7.2,6.6c0,2.5-2.1,4.4-5.7,4.4c-3.7,0-5.7-2.2-5.7-2.2    L177.7,34.6z"/>
		<path d="M191.6,27.4h-1.9v-2.9h2v-3.6h3.6v3.6h3.4v2.9h-3.4v5.7c0,2.4,1.9,2.8,2.9,2.8c0.4,0,0.7-0.1,0.7-0.1v3.2    c0,0-0.4,0.1-1.1,0.1c-2.1,0-6.2-0.6-6.2-5.6V27.4z"/>
	</g>
</g>
</svg>